<?xml version="1.0" encoding="UTF-8"?>
<svg version="1.1" xmlns="http://www.w3.org/2000/svg" width="500" height="500">
<path d="M0 0 C165 0 330 0 500 0 C500 165 500 330 500 500 C335 500 170 500 0 500 C0 335 0 170 0 0 Z " fill="#212662" transform="translate(0,0)"/>
<path d="M0 0 C6.19964627 3.65520811 9.75436599 8.54661542 11.625 15.4375 C11.88417943 18.48023282 11.85863252 21.50280639 11.8203125 24.5546875 C11.81606766 25.8404216 11.81606766 25.8404216 11.81173706 27.15213013 C11.80059999 29.87239932 11.7755076 32.59233141 11.75 35.3125 C11.73996182 37.16405772 11.73083744 39.01562064 11.72265625 40.8671875 C11.70068188 45.3907536 11.666197 49.91406977 11.625 54.4375 C8.81181934 55.37522689 6.54031802 55.72868747 3.60546875 56.015625 C2.5477124 56.12156982 1.48995605 56.22751465 0.40014648 56.33666992 C-0.78377686 56.45244385 -1.9677002 56.56821777 -3.1875 56.6875 C-5.88033471 56.95845478 -8.57305169 57.23038339 -11.265625 57.50390625 C-11.99318497 57.57760941 -12.72074493 57.65131256 -13.47035217 57.72724915 C-21.5479105 58.54951491 -29.6181036 59.43743115 -37.68887329 60.32342529 C-62.72508048 63.0703559 -87.77319315 65.70279634 -112.82209301 68.33086872 C-115.21997949 68.58245721 -117.6178561 68.83413957 -120.01573181 69.08583069 C-122.94054514 69.39282516 -125.86540309 69.69938835 -128.79029846 70.00559998 C-138.18299985 70.99026295 -147.57374803 71.9927261 -156.96408081 72.99972534 C-158.25702529 73.13831939 -159.54996977 73.27691343 -160.88209438 73.4197073 C-164.04640318 73.758907 -167.21070487 74.09817284 -170.375 74.4375 C-169.81882468 74.43733765 -169.26264937 74.4371753 -168.68962026 74.43700802 C-135.6961587 74.4281379 -102.70288291 74.4505298 -69.70948233 74.51329029 C-65.74431024 74.52080597 -61.77913771 74.52806152 -57.81396484 74.53515625 C-56.62991706 74.53728138 -56.62991706 74.53728138 -55.42194912 74.53944944 C-42.6554106 74.56174309 -29.88895298 74.56298402 -17.12240043 74.55638863 C-4.01412506 74.55008743 9.09398071 74.56654042 22.20220494 74.60393608 C30.28502618 74.62628332 38.36746043 74.63106858 46.45029423 74.61309664 C52.65748426 74.60120058 58.86421199 74.6210257 65.0713253 74.65245247 C67.61088905 74.66040146 70.15050876 74.65819255 72.69005013 74.64489174 C98.82211529 74.51963331 98.82211529 74.51963331 110.625 84.75 C115.89358194 90.53258994 118.76090272 98.14335469 118.73852539 105.93066406 C118.73844986 106.81127502 118.73837433 107.69188599 118.73829651 108.59918213 C118.73313522 109.54098328 118.72797394 110.48278442 118.72265625 111.453125 C118.72053383 112.90957428 118.72053383 112.90957428 118.71836853 114.39544678 C118.71277663 117.49282935 118.70022559 120.59013932 118.6875 123.6875 C118.68248395 125.78906146 118.67792123 127.89062404 118.67382812 129.9921875 C118.66280985 135.14065292 118.64555074 140.28906416 118.625 145.4375 C117.52110428 145.44336624 116.41720856 145.44923248 115.27986145 145.45527649 C104.87696132 145.51248806 94.47427055 145.5852416 84.07158375 145.67321491 C78.72343769 145.71794345 73.37536825 145.7571942 68.02709961 145.78393555 C62.86576915 145.80994359 57.70473314 145.85032853 52.54358482 145.90068626 C50.57445627 145.91737185 48.60527678 145.92887558 46.63608742 145.93511391 C43.87792718 145.94473651 41.12052312 145.97277385 38.36254883 146.00512695 C37.1411898 146.00297432 37.1411898 146.00297432 35.89515686 146.0007782 C30.84927611 146.08449294 27.26703258 146.79546742 23.625 150.4375 C22.99872737 155.79001593 22.99872737 155.79001593 25.00006104 160.53894043 C29.10182473 163.50565425 33.11079953 162.97571343 38.04980469 162.91992188 C39.11043121 162.92383438 40.17105774 162.92774689 41.26382446 162.93177795 C43.56752681 162.93775719 45.87126687 162.93457536 48.17494965 162.9233551 C51.82386642 162.90612253 55.47198878 162.91358667 59.12091064 162.9276123 C68.18632153 162.95729536 77.25158203 162.94408415 86.3170166 162.93243408 C93.97204798 162.92422487 101.62673319 162.93219947 109.28171539 162.96156311 C112.87135934 162.96865027 116.46039204 162.95198431 120.04998779 162.93444824 C122.26086758 162.9401579 124.47174487 162.94697606 126.68261719 162.95507812 C128.17291946 162.93810631 128.17291946 162.93810631 129.69332886 162.92079163 C135.75020147 162.97371054 140.76677989 163.5787123 145.625 167.4375 C150.25284143 172.53522214 151.35904651 177.39698212 151.25610352 184.11328125 C151.26683647 185.35396866 151.26683647 185.35396866 151.27778625 186.61972046 C151.29457604 189.33039043 151.27532874 192.03938359 151.25390625 194.75 C151.25473585 196.6475437 151.25719865 198.54508732 151.26121521 200.44262695 C151.26406656 204.41021479 151.24943694 208.37723605 151.22192383 212.34472656 C151.1878423 217.41544687 151.19386565 222.48515468 151.2125864 227.55592346 C151.2231846 231.4714798 151.21419299 235.38680295 151.19920158 239.30233765 C151.19404 241.1713288 151.19447685 243.04034451 151.20074654 244.90933228 C151.20623299 247.52732207 151.18571531 250.14389113 151.15844727 252.76171875 C151.16823608 253.90596817 151.16823608 253.90596817 151.17822266 255.07333374 C151.08196305 260.54318031 149.74242365 264.89614102 146.625 269.4375 C141.15291274 273.79283476 136.89165916 274.58432466 130.09594727 274.5793457 C128.94912979 274.58455734 128.94912979 274.58455734 127.77914429 274.58987427 C126.11930124 274.59722427 124.45944841 274.60257368 122.79959297 274.60616493 C120.17278697 274.61333205 117.54616758 274.62899945 114.91941833 274.64750671 C107.45110597 274.69997185 99.98289709 274.74797435 92.5144043 274.76342773 C87.94607439 274.77350028 83.37821578 274.80280312 78.81007195 274.84474754 C77.06898498 274.85707015 75.3278315 274.8621765 73.58670235 274.85994911 C71.15177072 274.85760017 68.71819572 274.87972857 66.28344727 274.9074707 C65.56383316 274.90086929 64.84421906 274.89426788 64.10279846 274.88746643 C60.73982509 274.95043317 58.91093329 275.22472801 56.1815033 277.25578308 C53.87229007 280.49255719 54.01273671 282.55983247 54.625 286.4375 C56.28209618 289.03056835 56.99903563 290.0116977 59.625 291.4375 C64.00944068 292.2047734 68.35866366 292.15858682 72.80078125 292.14453125 C74.08107712 292.15965256 75.36137299 292.17477386 76.6804657 292.19035339 C80.0720607 292.23013385 83.46311867 292.24038912 86.85491943 292.24438477 C90.32076232 292.25372967 93.7862914 292.29115144 97.25195312 292.32617188 C104.04297568 292.38910574 110.83370902 292.42397467 117.625 292.4375 C117.72694511 298.96609057 117.79669296 305.49447364 117.84472656 312.02368164 C117.864764 314.24185863 117.89200173 316.45998332 117.92675781 318.67797852 C117.97562253 321.87789872 117.99804812 325.07711674 118.015625 328.27734375 C118.03627014 329.25895981 118.05691528 330.24057587 118.07818604 331.25193787 C118.08122219 340.70129698 115.02720921 347.73180104 108.625 354.64453125 C102.7816196 359.88303047 96.4374959 362.55163802 88.63729095 362.5773077 C87.62654243 362.58299894 86.61579391 362.58869018 85.57441664 362.59455389 C83.91160933 362.5963237 83.91160933 362.5963237 82.21520996 362.59812927 C80.44643832 362.605761 80.44643832 362.605761 78.64193392 362.61354691 C75.36768024 362.62654296 72.093451 362.63503255 68.81917906 362.6415199 C66.01090697 362.6478962 63.20265306 362.65796559 60.39439231 362.66808056 C51.14203555 362.70138771 41.88966773 362.72292378 32.63727069 362.74128041 C30.22713678 362.74607706 27.81700333 362.75106019 25.40686989 362.75608563 C10.43269103 362.78706034 -4.54149174 362.81373915 -19.51569366 362.83050442 C-22.98344428 362.83445377 -26.45119484 362.83845678 -29.91894531 362.8425293 C-31.21174814 362.84404184 -31.21174814 362.84404184 -32.5306682 362.84558494 C-46.48362585 362.8625816 -60.43640583 362.9036802 -74.3892768 362.95455229 C-88.72253812 363.00638022 -103.05570819 363.03545354 -117.3890624 363.0427013 C-125.43339713 363.04735721 -133.47744098 363.0620415 -141.52168274 363.1024456 C-148.37463444 363.1368248 -155.22724275 363.15065324 -162.08027571 363.13802146 C-165.57362839 363.1322127 -169.06625558 363.13593008 -172.55949783 363.1661911 C-176.35670769 363.19391797 -180.15211469 363.18434025 -183.94934082 363.16575623 C-185.04003325 363.18255115 -186.13072568 363.19934608 -187.25446939 363.21664995 C-195.93999065 363.11087736 -204.15868086 360.65439518 -210.44511461 354.36710256 C-216.293022 347.10988787 -217.32496392 339.56436856 -216.375 330.4375 C-214.45373177 323.63828129 -209.63652869 318.28503046 -203.85038757 314.41876221 C-196.36464394 310.33643484 -188.42700206 310.89761621 -180.14205933 310.9516449 C-177.39131951 310.96904207 -174.64161815 310.96132674 -171.89086914 310.9473877 C-165.06305243 310.91787644 -158.23544035 310.93090951 -151.40759277 310.94256592 C-145.62546681 310.95079441 -139.84379825 310.9427367 -134.06173706 310.91343689 C-131.36451047 310.90638596 -128.66810867 310.92296273 -125.97094727 310.94055176 C-114.13601783 311.00539504 -114.13601783 311.00539504 -103.375 306.4375 C-102.01375 305.633125 -102.01375 305.633125 -100.625 304.8125 C-95.41339911 299.31136572 -93.06002252 293.4395494 -92.75 285.875 C-93.09396102 277.97319275 -95.91555326 272.56620775 -101.5 267.0625 C-111.08372887 259.8996314 -123.57842748 261.02180001 -134.92236328 261.08447266 C-136.78128161 261.08364058 -138.64019976 261.08142046 -140.49911499 261.07792664 C-144.4828529 261.07299925 -148.46644299 261.07702954 -152.45016861 261.08794022 C-158.75450909 261.10437185 -165.05866642 261.09580304 -171.36300659 261.08309937 C-188.15071007 261.0530519 -204.9383793 261.05445172 -221.72609603 261.07335222 C-232.77058024 261.08569307 -243.8148556 261.08380842 -254.85931575 261.05496442 C-261.12166127 261.03975634 -267.38343849 261.04717376 -273.64574838 261.07167459 C-277.54459003 261.08176426 -281.44317245 261.07103384 -285.3419838 261.05455971 C-287.14428151 261.05111639 -288.94661941 261.05616956 -290.74886322 261.07052803 C-300.76732009 261.1453826 -309.14604268 261.18287118 -316.90072823 254.03022194 C-323.34722785 247.01779559 -323.99921669 240.25333065 -323.78125 231.03515625 C-322.88786346 223.12353121 -318.24074947 218.91385539 -312.4375 213.8828125 C-308.5394059 211.15119353 -305.00521482 210.18810749 -300.27862549 210.17921448 C-298.77327744 210.16897247 -298.77327744 210.16897247 -297.23751831 210.15852356 C-295.60255905 210.16235298 -295.60255905 210.16235298 -293.93457031 210.16625977 C-292.19951736 210.15841965 -292.19951736 210.15841965 -290.42941284 210.15042114 C-287.91893113 210.14018433 -285.40842822 210.1344013 -282.89792633 210.13253975 C-278.92119252 210.12887684 -274.94462723 210.11250426 -270.96795654 210.09178162 C-261.08834585 210.04267218 -251.20868823 210.01175843 -241.32897949 209.99047852 C-233.65337023 209.97391894 -225.97790945 209.95099598 -218.3023994 209.90745777 C-215.00062091 209.88932083 -211.69908967 209.87888214 -208.39725494 209.87875557 C-204.70898584 209.87856296 -201.02120143 209.86025378 -197.33300781 209.83813477 C-195.71019394 209.84500053 -195.71019394 209.84500053 -194.05459595 209.852005 C-184.98026579 209.76573804 -177.55901862 208.29361926 -170.8125 201.984375 C-165.13083081 195.8704049 -165.07475224 189.62217448 -165.1640625 181.62890625 C-165.6350808 174.50257383 -169.13083308 169.16605378 -174.375 164.4375 C-180.24594613 160.94365711 -185.63776783 159.84816436 -192.38305664 159.89160156 C-193.65786896 159.87609505 -193.65786896 159.87609505 -194.95843506 159.86027527 C-197.73420706 159.8310586 -200.50924321 159.82935262 -203.28515625 159.828125 C-205.22286858 159.81312904 -207.16056819 159.79639894 -209.09825134 159.77801514 C-214.17313249 159.73448838 -219.24784125 159.71437513 -224.32287598 159.69927979 C-229.51157767 159.67965565 -234.70009463 159.63769168 -239.88867188 159.59765625 C-250.05072406 159.52251319 -260.21273458 159.47212555 -270.375 159.4375 C-270.4912785 150.09229434 -270.57990886 140.7473409 -270.63406086 131.40156746 C-270.66006225 127.06106994 -270.69528487 122.72107038 -270.75219727 118.38085938 C-270.806858 114.18571004 -270.83649153 109.99103713 -270.84938622 105.79555893 C-270.85856547 104.20166406 -270.87648962 102.60779281 -270.90365028 101.01410294 C-271.0510482 91.99997905 -270.99470436 84.00696296 -265.375 76.4375 C-260.83666004 71.96907309 -255.52167795 70.16985702 -249.5 68.4375 C-248.66847412 68.18677734 -247.83694824 67.93605469 -246.98022461 67.67773438 C-244.4488265 66.91785805 -241.91265723 66.1761655 -239.375 65.4375 C-237.93596197 65.01121234 -236.49714667 64.58417185 -235.05859375 64.15625 C-232.3567863 63.35537095 -229.65286606 62.56226899 -226.94702148 61.77514648 C-222.4926103 60.47510171 -218.04582854 59.15067805 -213.6015625 57.81640625 C-212.75329391 57.56182144 -211.90502533 57.30723663 -211.03105164 57.04493713 C-197.5053977 52.97976347 -183.99629929 48.8596119 -170.48461914 44.74829102 C-146.40503105 37.42249463 -146.40503105 37.42249463 -135.39553833 34.20285034 C-117.95785917 29.1024834 -100.58825642 23.77191594 -83.2121582 18.46655273 C-72.1610228 15.09312479 -61.10395173 11.74660623 -50.01391602 8.50317383 C-45.31542246 7.12719769 -40.62541941 5.72400139 -35.9375 4.3125 C-31.12890625 2.8671875 -31.12890625 2.8671875 -28.77734375 2.1652832 C-27.10414099 1.65839119 -25.43510701 1.13761848 -23.76953125 0.60620117 C-15.89669795 -1.87100115 -7.85988492 -3.47994905 0 0 Z " fill="#FEFEFE" transform="translate(336.375,70.5625)"/>
<path d="M0 0 C1.06416138 -0.00014603 2.12832275 -0.00029205 3.22473145 -0.0004425 C6.72544426 0.00025151 10.22610318 0.00801994 13.72680664 0.01586914 C16.16060863 0.01773514 18.594411 0.01915818 21.0282135 0.02015686 C27.42161096 0.02396773 33.81498557 0.0337858 40.20837402 0.04486084 C47.88601458 0.05690822 55.5636628 0.06148401 63.24131012 0.06731415 C74.89404359 0.07699832 86.54672694 0.09616492 98.19946289 0.11352539 C98.19946289 24.86352539 98.19946289 49.61352539 98.19946289 75.11352539 C71.10819045 75.19374301 71.10819045 75.19374301 59.53735352 75.21118164 C51.65003764 75.2231252 43.76276832 75.23723674 35.87548828 75.2644043 C29.51477995 75.28617586 23.15412156 75.29810317 16.79337883 75.30327988 C14.36977286 75.30696787 11.94616955 75.31416957 9.52258492 75.3249855 C6.12127962 75.33955757 2.72017927 75.34150092 -0.68115234 75.34057617 C-1.6773761 75.34776672 -2.67359985 75.35495728 -3.70001221 75.36236572 C-15.88233309 75.32665598 -24.58145975 72.42343324 -33.87866211 64.29711914 C-42.03713158 55.80166941 -44.51233965 46.02690753 -44.32421875 34.55981445 C-44.05461913 28.70956505 -43.10032235 24.0477837 -39.80053711 19.11352539 C-39.37643555 18.43290039 -38.95233398 17.75227539 -38.51538086 17.05102539 C-33.45159963 9.60345857 -26.35012046 3.96338651 -17.80053711 1.11352539 C-11.84489896 0.00864273 -6.03174528 -0.02181529 0 0 Z " fill="#232863" transform="translate(371.800537109375,251.886474609375)"/>
<path d="M0 0 C4.11431714 1.4241867 7.37911044 3.50591446 10.08203125 6.99609375 C12.11308898 11.42984956 11.70619883 16.27689041 11 21 C9.0171377 25.03654111 6.83420139 27.6500056 3 30 C-2.30604399 31.76868133 -7.14157481 31.8577347 -12.25 29.5 C-16.71595316 25.44004259 -20.21664769 21.10034153 -20.5625 14.875 C-19.74780259 9.26264003 -17.5750186 6.38751638 -13.375 2.6875 C-8.92314854 -0.47565762 -5.3540278 -0.48837416 0 0 Z " fill="#FBFBFC" transform="translate(369,274)"/>
</svg>
